<?xml version="1.0" encoding="utf-8"?>
<!-- Generator: Adobe Illustrator 24.1.3, SVG Export Plug-In . SVG Version: 6.00 Build 0)  -->
<svg version="1.1" id="Ebene_1" xmlns="http://www.w3.org/2000/svg" xmlns:xlink="http://www.w3.org/1999/xlink" x="0px" y="0px"
	 viewBox="0 0 200 200" style="enable-background:new 0 0 200 200;" xml:space="preserve">
<style type="text/css">
	.st0{fill:none;stroke:#B7B7B7;stroke-width:1.5;stroke-miterlimit:10;}
	.st1{fill:none;stroke:#B7B7B7;stroke-width:1.5556;stroke-miterlimit:10;}
	.st2{fill:#FFFFFF;stroke:#B7B7B7;stroke-width:0.8378;stroke-miterlimit:10;}
	.st3{fill:none;stroke:#1D1D1B;stroke-width:0.75;stroke-miterlimit:10;}
	.st4{fill:#FFFFFF;stroke:#1D1D1B;stroke-width:0.75;stroke-miterlimit:10;}
	.st5{fill:none;stroke:#1D1D1B;stroke-width:0.6117;stroke-miterlimit:10;}
	.st6{fill:none;stroke:#1D1D1B;stroke-miterlimit:10;}
	.st7{fill:#FFFFFF;stroke:#1D1D1B;stroke-miterlimit:10;}
	.st8{fill:none;stroke:#1D1D1B;stroke-width:1.5;stroke-miterlimit:10;}
	.st9{fill:#FFFFFF;stroke:#1D1D1B;stroke-width:1.5;stroke-miterlimit:10;}
	.st10{fill:none;stroke:#1D1D1B;stroke-width:1.4268;stroke-miterlimit:10;}
	.st11{fill:none;stroke:#1D1D1B;stroke-width:1.2042;stroke-miterlimit:10;}
	.st12{fill:#FFFFFF;stroke:#1D1D1B;stroke-width:1.3572;stroke-miterlimit:10;}
	.st13{fill:#FFFFFF;stroke:#1D1D1B;stroke-width:1.4667;stroke-miterlimit:10;}
	.st14{fill:none;stroke:#1D1D1B;stroke-width:1.1166;stroke-miterlimit:10;}
	.st15{fill:none;stroke:#1D1D1B;stroke-width:1.4391;stroke-miterlimit:10;}
	.st16{fill:none;stroke:#1D1D1B;stroke-width:1.4523;stroke-miterlimit:10;}
	.st17{fill:none;stroke:#1D1D1B;stroke-width:1.2492;stroke-miterlimit:10;}
	.st18{fill:none;stroke:#1D1D1B;stroke-width:1.5006;stroke-miterlimit:10;}
	.st19{fill:none;stroke:#1D1D1B;stroke-width:1.1472;stroke-miterlimit:10;}
	.st20{fill:none;stroke:#1D1D1B;stroke-width:1.3187;stroke-miterlimit:10;}
	.st21{fill:#FFFFFF;}
	.st22{fill:#1D1D1B;}
	.st23{fill:#FFFFFF;stroke:#000000;stroke-width:1.5;stroke-miterlimit:10;}
	.st24{fill:none;stroke:#000000;stroke-width:1.5;stroke-miterlimit:10;}
	.st25{fill:none;stroke:#1D1E1B;stroke-width:1.5;stroke-miterlimit:10;}
	.st26{fill:none;stroke:#1D1D1B;stroke-width:1.4016;stroke-miterlimit:10;}
	.st27{fill:none;stroke:#1D1D1B;stroke-width:1.5;stroke-linejoin:round;stroke-miterlimit:10;}
	.st28{opacity:0.4;fill:#FFFFFF;stroke:#1D1D1B;stroke-width:1.5;stroke-miterlimit:10;}
	.st29{opacity:0.4;fill:#FFFFFF;stroke:#1D1D1B;stroke-width:1.5;stroke-linejoin:round;stroke-miterlimit:10;}
</style>
<rect x="57.7" y="22.6" class="st8" width="99.5" height="162.5"/>
<rect x="66.5" y="31.5" class="st8" width="81.9" height="144.7"/>
<path class="st8" d="M143.7,121.8L143.7,121.8c-0.9,0-1.5-0.7-1.5-1.5V96.4c0-0.9,0.7-1.5,1.5-1.5l0,0c0.9,0,1.5,0.7,1.5,1.5v23.9
	C145.2,121.1,144.5,121.8,143.7,121.8z"/>
<line class="st8" x1="134.4" y1="37.9" x2="143.5" y2="47.1"/>
<line class="st8" x1="130.1" y1="49.6" x2="139.2" y2="58.7"/>
<line class="st8" x1="144" y1="56.1" x2="125.3" y2="37.5"/>
<line class="st8" x1="80.5" y1="170.8" x2="71.4" y2="161.7"/>
<line class="st8" x1="71" y1="152.6" x2="89.6" y2="171.3"/>
<path class="st8" d="M142.1,98.4c-0.9-0.5-1.5-1.5-1.5-2.6c0-1.7,1.4-3,3-3s3,1.4,3,3c0,1.1-0.6,2.1-1.5,2.6"/>
</svg>
